<?xml version="1.0" standalone="no"?><!DOCTYPE svg PUBLIC "-//W3C//DTD SVG 1.1//EN" "http://www.w3.org/Graphics/SVG/1.1/DTD/svg11.dtd"><svg t="1537441421971" class="icon" style="" viewBox="0 0 1024 1024" version="1.1" xmlns="http://www.w3.org/2000/svg" p-id="2726" xmlns:xlink="http://www.w3.org/1999/xlink" width="200" height="200"><defs><style type="text/css"></style></defs><path d="M862.48 129.28H161.52a49.6 49.6 0 0 0-49.52 49.6v116.24a49.6 49.6 0 0 0 49.52 49.6h700.96a49.6 49.6 0 0 0 49.52-49.6V178.88a49.6 49.6 0 0 0-49.52-49.6zM219.68 283.12a46.16 46.16 0 1 1 46.16-46.16 46.16 46.16 0 0 1-46.16 46.16zM862.48 404.32H161.52A49.52 49.52 0 0 0 112 453.84v116.32a49.52 49.52 0 0 0 49.52 49.52h700.96a49.52 49.52 0 0 0 49.52-49.52V453.84a49.52 49.52 0 0 0-49.52-49.52zM219.68 558.16A46.16 46.16 0 1 1 265.84 512a46.16 46.16 0 0 1-46.16 46.16z m153.84 0A46.16 46.16 0 1 1 419.68 512a46.16 46.16 0 0 1-46.16 46.16zM862.48 679.28H161.52a49.6 49.6 0 0 0-49.52 49.6v116.24a49.6 49.6 0 0 0 49.52 49.6h700.96a49.6 49.6 0 0 0 49.52-49.6V728.88a49.6 49.6 0 0 0-49.52-49.6z m-642.8 153.84a46.16 46.16 0 1 1 46.16-46.08 46.16 46.16 0 0 1-46.16 46.08z m153.84 0a46.16 46.16 0 1 1 46.16-46.08 46.16 46.16 0 0 1-46.16 46.08z m153.84 0a46.16 46.16 0 1 1 46.16-46.08 46.16 46.16 0 0 1-46.16 46.08z" p-id="2727" fill="#BFCBD9"></path></svg>