<?xml version="1.0" standalone="no"?><!DOCTYPE svg PUBLIC "-//W3C//DTD SVG 1.1//EN" "http://www.w3.org/Graphics/SVG/1.1/DTD/svg11.dtd"><svg t="1537441682186" class="icon" style="" viewBox="0 0 1024 1024" version="1.1" xmlns="http://www.w3.org/2000/svg" p-id="3290" xmlns:xlink="http://www.w3.org/1999/xlink" width="200" height="200"><defs><style type="text/css"></style></defs><path d="M791.373913 292.953043c0-161.346783-125.106087-292.062609-279.373913-292.062608-154.312348 0-279.373913 130.715826-279.373913 292.062608h558.747826z m174.614261 292.062609h-104.759652V417.079652l88.687304-92.738782a37.843478 37.843478 0 0 0 9.082435-35.394783 35.884522 35.884522 0 0 0-24.798609-25.956174 34.014609 34.014609 0 0 0-33.836522 9.48313l-69.89913 73.015653H201.950609l-69.899131-73.015653a34.014609 34.014609 0 0 0-33.836521-9.48313 35.884522 35.884522 0 0 0-24.798609 25.956174 37.843478 37.843478 0 0 0 9.082435 35.394783l80.317217 92.738782v167.936H58.011826c-19.277913 0-34.949565 16.339478-34.949565 36.507826 0 20.168348 15.671652 36.507826 34.949565 36.507826h104.759652v36.507826a335.560348 335.560348 0 0 0 41.894957 160.678957L103.424 960.333913a37.843478 37.843478 0 0 0 0 51.867826 34.014609 34.014609 0 0 0 49.552696 0l93.629217-97.146435c58.857739 68.296348 142.514087 107.52 230.489044 108.098783h4.185043V390.767304h69.854609v632.386783c86.683826-1.602783 168.915478-40.737391 226.971826-108.098783l93.584695 97.858783a34.014609 34.014609 0 0 0 49.597218 0 37.843478 37.843478 0 0 0 0-51.823304l-98.482087-102.978783a335.293217 335.293217 0 0 0 38.422261-164.285217v-35.795479h104.759652c19.277913 0 34.949565-16.339478 34.949565-36.507826 0-20.168348-15.671652-36.507826-34.949565-36.507826z" p-id="3291" fill="#BFCBD9"></path></svg>